<svg xmlns="http://www.w3.org/2000/svg" viewBox="0 0 220 300" fill="none">
<!-- Florie original botanical illustration: gerbera. Local SVG; no external assets. -->
<path d="M110 110 C102 169 116 220 107 282" fill="none" stroke="#65816a" stroke-width="5" stroke-linecap="round"/><path d="M110 214 Q67 216 54 177 Q93 176 110 214Z" fill="#92ab8b"/><path d="M108 180 Q146 184 165 149 Q122 144 108 180Z" fill="#a7bc96"/><path d="M110 214L65 185 M109 180L152 156" stroke="#65816a" stroke-width="1.5" fill="none"/><path d="M110 90 C100 65.85 100 21 110 21 C120 21 120 65.85 110 90Z" transform="rotate(0 110 90)" fill="#dc8f7d" stroke="#b97165" stroke-width="1.2"/>
<path d="M110 90 C100 65.85 100 21 110 21 C120 21 120 65.85 110 90Z" transform="rotate(20 110 90)" fill="#dc8f7d" stroke="#b97165" stroke-width="1.2"/>
<path d="M110 90 C100 65.85 100 21 110 21 C120 21 120 65.85 110 90Z" transform="rotate(40 110 90)" fill="#dc8f7d" stroke="#b97165" stroke-width="1.2"/>
<path d="M110 90 C100 65.85 100 21 110 21 C120 21 120 65.85 110 90Z" transform="rotate(60 110 90)" fill="#dc8f7d" stroke="#b97165" stroke-width="1.2"/>
<path d="M110 90 C100 65.85 100 21 110 21 C120 21 120 65.85 110 90Z" transform="rotate(80 110 90)" fill="#dc8f7d" stroke="#b97165" stroke-width="1.2"/>
<path d="M110 90 C100 65.85 100 21 110 21 C120 21 120 65.85 110 90Z" transform="rotate(100 110 90)" fill="#dc8f7d" stroke="#b97165" stroke-width="1.2"/>
<path d="M110 90 C100 65.85 100 21 110 21 C120 21 120 65.85 110 90Z" transform="rotate(120 110 90)" fill="#dc8f7d" stroke="#b97165" stroke-width="1.2"/>
<path d="M110 90 C100 65.85 100 21 110 21 C120 21 120 65.85 110 90Z" transform="rotate(140 110 90)" fill="#dc8f7d" stroke="#b97165" stroke-width="1.2"/>
<path d="M110 90 C100 65.85 100 21 110 21 C120 21 120 65.85 110 90Z" transform="rotate(160 110 90)" fill="#dc8f7d" stroke="#b97165" stroke-width="1.2"/>
<path d="M110 90 C100 65.85 100 21 110 21 C120 21 120 65.85 110 90Z" transform="rotate(180 110 90)" fill="#dc8f7d" stroke="#b97165" stroke-width="1.2"/>
<path d="M110 90 C100 65.85 100 21 110 21 C120 21 120 65.85 110 90Z" transform="rotate(200 110 90)" fill="#dc8f7d" stroke="#b97165" stroke-width="1.2"/>
<path d="M110 90 C100 65.85 100 21 110 21 C120 21 120 65.85 110 90Z" transform="rotate(220 110 90)" fill="#dc8f7d" stroke="#b97165" stroke-width="1.2"/>
<path d="M110 90 C100 65.85 100 21 110 21 C120 21 120 65.85 110 90Z" transform="rotate(240 110 90)" fill="#dc8f7d" stroke="#b97165" stroke-width="1.2"/>
<path d="M110 90 C100 65.85 100 21 110 21 C120 21 120 65.85 110 90Z" transform="rotate(260 110 90)" fill="#dc8f7d" stroke="#b97165" stroke-width="1.2"/>
<path d="M110 90 C100 65.85 100 21 110 21 C120 21 120 65.85 110 90Z" transform="rotate(280 110 90)" fill="#dc8f7d" stroke="#b97165" stroke-width="1.2"/>
<path d="M110 90 C100 65.85 100 21 110 21 C120 21 120 65.85 110 90Z" transform="rotate(300 110 90)" fill="#dc8f7d" stroke="#b97165" stroke-width="1.2"/>
<path d="M110 90 C100 65.85 100 21 110 21 C120 21 120 65.85 110 90Z" transform="rotate(320 110 90)" fill="#dc8f7d" stroke="#b97165" stroke-width="1.2"/>
<path d="M110 90 C100 65.85 100 21 110 21 C120 21 120 65.85 110 90Z" transform="rotate(340 110 90)" fill="#dc8f7d" stroke="#b97165" stroke-width="1.2"/>
<path d="M110 90 C104 73.2 104 42 110 42 C116 42 116 73.2 110 90Z" transform="rotate(10 110 90)" fill="#edb09a" stroke="#ce8c7c" stroke-width="1.2"/>
<path d="M110 90 C104 73.2 104 42 110 42 C116 42 116 73.2 110 90Z" transform="rotate(30 110 90)" fill="#edb09a" stroke="#ce8c7c" stroke-width="1.2"/>
<path d="M110 90 C104 73.2 104 42 110 42 C116 42 116 73.2 110 90Z" transform="rotate(50 110 90)" fill="#edb09a" stroke="#ce8c7c" stroke-width="1.2"/>
<path d="M110 90 C104 73.2 104 42 110 42 C116 42 116 73.2 110 90Z" transform="rotate(70 110 90)" fill="#edb09a" stroke="#ce8c7c" stroke-width="1.2"/>
<path d="M110 90 C104 73.2 104 42 110 42 C116 42 116 73.2 110 90Z" transform="rotate(90 110 90)" fill="#edb09a" stroke="#ce8c7c" stroke-width="1.2"/>
<path d="M110 90 C104 73.2 104 42 110 42 C116 42 116 73.2 110 90Z" transform="rotate(110 110 90)" fill="#edb09a" stroke="#ce8c7c" stroke-width="1.2"/>
<path d="M110 90 C104 73.2 104 42 110 42 C116 42 116 73.2 110 90Z" transform="rotate(130 110 90)" fill="#edb09a" stroke="#ce8c7c" stroke-width="1.2"/>
<path d="M110 90 C104 73.2 104 42 110 42 C116 42 116 73.2 110 90Z" transform="rotate(150 110 90)" fill="#edb09a" stroke="#ce8c7c" stroke-width="1.2"/>
<path d="M110 90 C104 73.2 104 42 110 42 C116 42 116 73.2 110 90Z" transform="rotate(170 110 90)" fill="#edb09a" stroke="#ce8c7c" stroke-width="1.2"/>
<path d="M110 90 C104 73.2 104 42 110 42 C116 42 116 73.2 110 90Z" transform="rotate(190 110 90)" fill="#edb09a" stroke="#ce8c7c" stroke-width="1.2"/>
<path d="M110 90 C104 73.2 104 42 110 42 C116 42 116 73.2 110 90Z" transform="rotate(210 110 90)" fill="#edb09a" stroke="#ce8c7c" stroke-width="1.2"/>
<path d="M110 90 C104 73.2 104 42 110 42 C116 42 116 73.2 110 90Z" transform="rotate(230 110 90)" fill="#edb09a" stroke="#ce8c7c" stroke-width="1.2"/>
<path d="M110 90 C104 73.2 104 42 110 42 C116 42 116 73.2 110 90Z" transform="rotate(250 110 90)" fill="#edb09a" stroke="#ce8c7c" stroke-width="1.2"/>
<path d="M110 90 C104 73.2 104 42 110 42 C116 42 116 73.2 110 90Z" transform="rotate(270 110 90)" fill="#edb09a" stroke="#ce8c7c" stroke-width="1.2"/>
<path d="M110 90 C104 73.2 104 42 110 42 C116 42 116 73.2 110 90Z" transform="rotate(290 110 90)" fill="#edb09a" stroke="#ce8c7c" stroke-width="1.2"/>
<path d="M110 90 C104 73.2 104 42 110 42 C116 42 116 73.2 110 90Z" transform="rotate(310 110 90)" fill="#edb09a" stroke="#ce8c7c" stroke-width="1.2"/>
<path d="M110 90 C104 73.2 104 42 110 42 C116 42 116 73.2 110 90Z" transform="rotate(330 110 90)" fill="#edb09a" stroke="#ce8c7c" stroke-width="1.2"/>
<path d="M110 90 C104 73.2 104 42 110 42 C116 42 116 73.2 110 90Z" transform="rotate(350 110 90)" fill="#edb09a" stroke="#ce8c7c" stroke-width="1.2"/>
<circle cx="110" cy="90" r="22" fill="#d8ac62"/><circle cx="110" cy="90" r="14" fill="#8b684c"/><circle cx="106" cy="85" r="3" fill="#e5c581"/>
</svg>
